<svg width="381" height="121" viewBox="0 0 381 121" fill="none" xmlns="http://www.w3.org/2000/svg">
<path d="M97.8209 79.0849C97.8437 80.0687 97.5434 81.033 96.9659 81.8299C96.3958 82.6423 95.5731 83.2435 94.6259 83.5399L86.9309 86.1049C84.5607 86.892 82.4045 88.2165 80.6309 89.9749C78.8593 91.738 77.5327 93.8976 76.7609 96.2749L74.0609 103.925C73.7796 104.843 73.212 105.647 72.4409 106.22C71.6179 106.779 70.6457 107.077 69.6509 107.075C68.6526 107.118 67.6684 106.827 66.8536 106.248C66.0388 105.67 65.4398 104.836 65.1509 103.88L62.5859 96.1849C61.8141 93.8075 60.4875 91.648 58.7159 89.8849C56.9276 88.1347 54.7771 86.7982 52.4159 85.9699L44.7209 83.4499C43.8099 83.1305 43.0122 82.5518 42.4259 81.7849C41.8351 80.9723 41.5055 79.9992 41.4809 78.9949C41.4382 77.9965 41.7291 77.0124 42.3076 76.1976C42.8861 75.3828 43.7193 74.7837 44.6759 74.4949L52.4159 71.9299C54.8163 71.1542 56.9981 69.8196 58.7819 68.0358C60.5656 66.2521 61.9003 64.0703 62.6759 61.6699L65.2409 54.0649C65.5032 53.1291 66.0614 52.3034 66.832 51.7113C67.6026 51.1192 68.5442 50.7924 69.5159 50.7799C70.4834 50.7799 71.4329 51.0454 72.2609 51.5449C73.0799 52.1074 73.7099 52.9084 74.0609 53.8399L76.6709 61.6699C77.4466 64.0703 78.7812 66.2521 80.5649 68.0358C82.3487 69.8196 84.5305 71.1542 86.9309 71.9299L94.5809 74.6299C95.5116 74.9349 96.3174 75.5353 96.8759 76.3399C97.4855 77.1254 97.8178 78.0906 97.8209 79.0849ZM52.8254 50.4649C52.8185 51.347 52.5525 52.2077 52.0604 52.9399C51.5285 53.6643 50.7919 54.2129 49.9454 54.5149L44.2754 56.4049C42.6869 56.9539 41.2469 57.8449 40.0454 59.0149C38.8709 60.2126 37.9792 61.6579 37.4354 63.2449L35.5004 68.8249C35.2261 69.6858 34.6717 70.4303 33.9254 70.9399C33.1856 71.4564 32.3076 71.7386 31.4054 71.7499C30.483 71.7345 29.5875 71.4361 28.8404 70.8949C28.1326 70.3565 27.6002 69.6206 27.3104 68.7799L25.4654 63.1549C24.924 61.58 24.0315 60.1489 22.8554 58.9699C21.7029 57.7607 20.2633 56.8629 18.6704 56.3599L13.0454 54.4699C12.1726 54.1951 11.4139 53.6419 10.8854 52.8949C10.5272 52.3339 10.2979 51.7004 10.2141 51.0401C10.1302 50.3798 10.1939 49.7091 10.4005 49.0764C10.6071 48.4437 10.9515 47.8646 11.4089 47.3811C11.8662 46.8975 12.4252 46.5214 13.0454 46.2799L18.6704 44.4349C20.262 43.8791 21.7078 42.9714 22.8998 41.7793C24.0919 40.5872 24.9997 39.1415 25.5554 37.5499L27.4004 32.0149C27.6656 31.1854 28.1659 30.4507 28.8404 29.8999C29.5572 29.3598 30.4191 29.0464 31.3154 28.9999C32.2235 28.9755 33.1177 29.2265 33.8804 29.7199C34.6311 30.2266 35.2114 30.948 35.5454 31.7899L37.4354 37.5499C37.9911 39.1415 38.8989 40.5872 40.091 41.7793C41.2831 42.9714 42.7288 43.8791 44.3204 44.4349L49.9454 46.3699C50.7867 46.6589 51.5125 47.2111 52.0154 47.9449C52.548 48.6766 52.832 49.5599 52.8254 50.4649ZM78.8759 26.3449C78.8352 27.1654 78.5706 27.959 78.1109 28.6399C77.6426 29.2816 76.9798 29.755 76.2209 29.9899L73.4309 30.9349C72.889 31.1219 72.3966 31.4298 71.9912 31.8352C71.5858 32.2406 71.278 32.7329 71.0909 33.2749L70.1009 36.1099C69.8292 36.8002 69.3788 37.4059 68.7959 37.8649C68.1325 38.3963 67.3059 38.6825 66.4559 38.6749C65.678 38.6266 64.9225 38.3953 64.2509 37.9999C63.5781 37.5042 63.0751 36.8126 62.8109 36.0199L61.8659 33.2299C61.7034 32.6765 61.3921 32.1784 60.9659 31.7899C60.5692 31.3736 60.0739 31.064 59.5259 30.8899L56.7359 29.9899C55.9935 29.7004 55.3413 29.219 54.8459 28.5949C54.379 27.9204 54.128 27.1201 54.1259 26.2999C54.1521 25.4767 54.4179 24.6791 54.8909 24.0049C55.3756 23.38 56.0326 22.9107 56.7809 22.6549L59.5259 21.7549C60.0802 21.5658 60.5868 21.2587 61.0109 20.8549C61.4147 20.4308 61.7218 19.9241 61.9109 19.3699L62.8559 16.5799C63.1259 15.8824 63.5534 15.2659 64.1159 14.7799C64.7615 14.3034 65.5228 14.0082 66.3209 13.9249C67.1702 13.92 68.0012 14.1709 68.7059 14.6449C69.3402 15.1221 69.837 15.7586 70.1459 16.4899L71.0909 19.3699C71.28 19.9241 71.5871 20.4308 71.9909 20.8549C72.4094 21.2435 72.8981 21.549 73.4309 21.7549L76.2659 22.6999C76.9869 22.9835 77.6224 23.4486 78.1109 24.0499C78.6018 24.7149 78.8696 25.5183 78.8759 26.3449Z" fill="#FD853A"/>
<path d="M195.52 50.6222H177.764C177.527 48.7992 177.042 47.1539 176.308 45.6861C175.574 44.2183 174.604 42.9635 173.396 41.9219C172.189 40.8802 170.757 40.0871 169.099 39.5426C167.466 38.9744 165.655 38.6903 163.666 38.6903C160.139 38.6903 157.097 39.5544 154.54 41.2827C152.007 43.0109 150.054 45.5085 148.68 48.7756C147.331 52.0426 146.656 55.9962 146.656 60.6364C146.656 65.4659 147.343 69.5142 148.716 72.7812C150.113 76.0246 152.066 78.4749 154.575 80.1321C157.108 81.7656 160.103 82.5824 163.56 82.5824C165.501 82.5824 167.265 82.3338 168.851 81.8366C170.461 81.3395 171.869 80.6174 173.077 79.6705C174.308 78.6998 175.314 77.5279 176.095 76.1548C176.9 74.758 177.456 73.1837 177.764 71.4318L195.52 71.5384C195.212 74.758 194.277 77.9304 192.714 81.0554C191.176 84.1804 189.057 87.0331 186.358 89.6136C183.659 92.1705 180.368 94.2064 176.486 95.7216C172.627 97.2367 168.2 97.9943 163.205 97.9943C156.623 97.9943 150.728 96.5502 145.52 93.6619C140.335 90.75 136.24 86.5123 133.233 80.9489C130.226 75.3854 128.723 68.6146 128.723 60.6364C128.723 52.6345 130.25 45.8518 133.304 40.2884C136.358 34.7249 140.489 30.4991 145.697 27.6108C150.906 24.7225 156.741 23.2784 163.205 23.2784C167.608 23.2784 171.68 23.8939 175.42 25.125C179.161 26.3324 182.452 28.108 185.293 30.4517C188.134 32.7718 190.442 35.6245 192.217 39.0099C193.993 42.3954 195.094 46.2661 195.52 50.6222ZM222.944 65.892V97H205.578V24.2727H222.375V52.4688H222.979C224.21 49.107 226.222 46.4792 229.016 44.5852C231.833 42.6913 235.278 41.7443 239.35 41.7443C243.185 41.7443 246.523 42.5966 249.364 44.3011C252.205 45.982 254.407 48.3613 255.969 51.4389C257.555 54.5166 258.337 58.1151 258.313 62.2344V97H240.948V65.6435C240.971 62.6132 240.214 60.2457 238.675 58.5412C237.136 56.8366 234.97 55.9844 232.176 55.9844C230.354 55.9844 228.744 56.3868 227.347 57.1918C225.974 57.973 224.897 59.0975 224.115 60.5653C223.358 62.0331 222.967 63.8087 222.944 65.892ZM294.65 98.0298C288.944 98.0298 284.02 96.9053 279.877 94.6562C275.758 92.3835 272.585 89.152 270.36 84.9616C268.158 80.7476 267.058 75.7405 267.058 69.9403C267.058 64.3059 268.17 59.3816 270.396 55.1676C272.621 50.9299 275.758 47.6392 279.806 45.2955C283.854 42.928 288.625 41.7443 294.117 41.7443C298 41.7443 301.551 42.348 304.771 43.5554C307.99 44.7628 310.772 46.5502 313.116 48.9176C315.46 51.285 317.282 54.2088 318.585 57.6889C319.887 61.1454 320.538 65.1108 320.538 69.5852V73.9176H273.13V63.8324H304.38C304.356 61.9858 303.918 60.3404 303.066 58.8963C302.214 57.4522 301.042 56.3277 299.55 55.5227C298.083 54.6941 296.39 54.2798 294.472 54.2798C292.531 54.2798 290.791 54.7178 289.252 55.5938C287.713 56.446 286.494 57.6179 285.594 59.1094C284.695 60.5772 284.221 62.2462 284.174 64.1165V74.3793C284.174 76.6046 284.612 78.5578 285.488 80.2386C286.364 81.8958 287.607 83.1861 289.217 84.1094C290.826 85.0327 292.744 85.4943 294.969 85.4943C296.508 85.4943 297.905 85.2812 299.16 84.8551C300.415 84.429 301.492 83.8016 302.391 82.973C303.291 82.1444 303.966 81.1264 304.415 79.919L320.36 80.3807C319.697 83.9555 318.241 87.0687 315.992 89.7202C313.767 92.348 310.843 94.3958 307.221 95.8636C303.599 97.3078 299.408 98.0298 294.65 98.0298ZM346.772 24.2727V97H329.407V24.2727H346.772ZM375.19 24.2727V97H357.825V24.2727H375.19Z" fill="#0056F7"/>
</svg>
